<?xml version="1.0" standalone="no"?>
<!DOCTYPE svg PUBLIC "-//W3C//DTD SVG 20010904//EN"
 "http://www.w3.org/TR/2001/REC-SVG-20010904/DTD/svg10.dtd">
<svg version="1.0" xmlns="http://www.w3.org/2000/svg"
 width="260.000000pt" height="260.000000pt" viewBox="0 0 260.000000 260.000000"
 preserveAspectRatio="xMidYMid meet">
<metadata>
Created by potrace 1.11, written by Peter Selinger 2001-2013
</metadata>
<g transform="translate(0.000000,260.000000) scale(0.100000,-0.100000)"
fill="#000000" stroke="none">
<path d="M990 2580 c0 -24 -44 -44 -127 -60 -31 -5 -74 -21 -95 -35 -21 -14
-63 -36 -93 -50 -57 -25 -78 -39 -164 -110 -27 -22 -68 -55 -90 -73 -37 -30
-96 -97 -189 -215 -18 -23 -46 -71 -63 -106 -17 -35 -41 -80 -54 -100 -13 -20
-31 -67 -39 -104 -20 -85 -31 -107 -56 -107 -19 0 -20 -9 -20 -320 0 -311 1
-320 20 -320 25 0 36 -22 56 -107 8 -37 28 -88 44 -113 16 -25 33 -57 39 -72
20 -52 104 -169 211 -291 53 -60 246 -206 310 -234 19 -8 56 -28 81 -44 25
-16 72 -34 105 -40 75 -14 114 -34 114 -59 0 -20 8 -20 320 -20 312 0 320 0
320 20 0 25 39 45 114 59 33 6 80 24 105 40 25 16 62 36 81 44 64 28 257 174
310 234 107 122 191 239 211 291 6 15 23 47 39 72 15 25 34 72 40 105 16 78
35 115 60 115 20 0 20 8 20 320 0 311 -1 320 -20 320 -25 0 -36 22 -56 107 -8
37 -28 88 -44 113 -16 25 -33 57 -39 72 -23 61 -137 213 -226 303 -90 89 -242
203 -303 226 -15 6 -48 24 -73 40 -25 16 -71 34 -102 40 -83 15 -127 35 -127
59 0 20 -7 20 -310 20 -303 0 -310 0 -310 -20z m932 -974 c55 -26 124 -91 155
-144 24 -41 28 -60 31 -147 4 -87 1 -107 -18 -147 -30 -65 -79 -118 -146 -158
-56 -33 -62 -35 -149 -34 -121 1 -178 21 -237 82 -98 100 -128 214 -89 340 36
118 117 200 221 222 70 14 189 7 232 -14z"/>
</g>
</svg>
